<svg width="270" height="40" viewBox="0 0 249 33" fill="none" xmlns="http://www.w3.org/2000/svg">
<g filter="url(#filter0_i_14_252)">
<path d="M13.3 25.65V21.1C13.3 20.3667 12.8833 20 12.05 20H7.25C4.78333 20 3.03333 19.4667 2 18.4C1 17.3 0.5 15.7333 0.5 13.7V7.1C0.5 2.96667 2.93333 0.899999 7.8 0.899999H14.65C19.5167 0.899999 21.95 2.96667 21.95 7.1V10.95H13.2V8.25C13.2 7.51667 12.7833 7.15 11.95 7.15H10.5C9.66667 7.15 9.25 7.51667 9.25 8.25V13C9.25 13.7333 9.66667 14.1 10.5 14.1H15.2C17.6667 14.1 19.4167 14.6167 20.45 15.65C21.5167 16.6833 22.05 18.2 22.05 20.2V26.8C22.05 30.9333 19.6167 33 14.75 33H7.95C3.05 33 0.6 30.9333 0.6 26.8V22.95H9.35V25.65C9.35 26.3833 9.76667 26.75 10.6 26.75H12.05C12.8833 26.75 13.3 26.3833 13.3 25.65ZM63.3898 33H55.5898V0.899999H65.1398L70.3398 18.05L75.5398 0.899999H85.0898V33H77.3398V12.6L73.3398 26.05H67.3398L63.3898 12.7V33ZM97.8359 26.75H108.786V33H89.0859V0.899999H108.336V7.15H97.8359V13.7H106.886V19.95H97.8359V26.75ZM142.197 0.899999H150.847L144.047 33H133.997L130.447 13.85L126.897 33H116.847L110.047 0.899999H119.147L121.847 22.5L126.147 0.899999H134.697L138.997 22.5L142.197 0.899999ZM168.244 0.899999H176.844V33H168.244V20.3H161.944V33H153.344V0.899999H161.944V14.05H168.244V0.899999ZM189.584 26.75H200.534V33H180.834V0.899999H200.084V7.15H189.584V13.7H198.634V19.95H189.584V26.75ZM212.045 21.6V33H203.295V0.899999H218.145C223.045 0.899999 225.495 2.96667 225.495 7.1V15.4C225.495 18.5667 224.062 20.5167 221.195 21.25L227.095 33H217.695L212.595 21.6H212.045ZM215.495 7.15H212.045V15.65H215.495C216.328 15.65 216.745 15.2833 216.745 14.55V8.25C216.745 7.51667 216.328 7.15 215.495 7.15ZM237.729 26.75H248.679V33H228.979V0.899999H248.229V7.15H237.729V13.7H246.779V19.95H237.729V26.75Z" fill="white"/>
</g>
<defs>
<filter id="filter0_i_14_252" x="0.5" y="0.899902" width="248.178" height="36.1001" filterUnits="userSpaceOnUse" color-interpolation-filters="sRGB">
<feFlood flood-opacity="0" result="BackgroundImageFix"/>
<feBlend mode="normal" in="SourceGraphic" in2="BackgroundImageFix" result="shape"/>
<feColorMatrix in="SourceAlpha" type="matrix" values="0 0 0 0 0 0 0 0 0 0 0 0 0 0 0 0 0 0 127 0" result="hardAlpha"/>
<feOffset dy="4"/>
<feGaussianBlur stdDeviation="2"/>
<feComposite in2="hardAlpha" operator="arithmetic" k2="-1" k3="1"/>
<feColorMatrix type="matrix" values="0 0 0 0 0 0 0 0 0 0 0 0 0 0 0 0 0 0 0.25 0"/>
<feBlend mode="normal" in2="shape" result="effect1_innerShadow_14_252"/>
</filter>
</defs>
</svg>
